<?xml version="1.0" encoding="UTF-8"?>
<svg version="1.1" xmlns="http://www.w3.org/2000/svg" width="500" height="500">
<path d="M0 0 C165 0 330 0 500 0 C500 165 500 330 500 500 C335 500 170 500 0 500 C0 335 0 170 0 0 Z " fill="#FEFEFE" transform="translate(0,0)"/>
<path d="M0 0 C1.13680593 -0.00785502 1.13680593 -0.00785502 2.29657763 -0.01586872 C4.84374202 -0.03090658 7.3907062 -0.0315747 9.93791199 -0.03224182 C11.76111186 -0.03986081 13.58430852 -0.04828786 15.40750122 -0.0574646 C20.36625214 -0.07944325 25.32494138 -0.08821311 30.28373551 -0.09329104 C33.38089308 -0.0969309 36.47803439 -0.10316904 39.57518578 -0.11029243 C50.37774238 -0.13479942 61.18025088 -0.14784136 71.98283386 -0.15138245 C82.05591391 -0.15501784 92.12868928 -0.18491033 102.20167619 -0.22678703 C110.84635554 -0.26146721 119.49093382 -0.2769305 128.13568228 -0.27762848 C133.30031741 -0.27842213 138.46464238 -0.28720077 143.6292057 -0.31562614 C148.48761296 -0.34176752 153.3454521 -0.34403397 158.20389748 -0.3279705 C159.98649329 -0.32615283 161.76912148 -0.33287544 163.55164719 -0.34878922 C165.9870097 -0.3692046 168.42037601 -0.35872663 170.85571289 -0.34057617 C171.55990587 -0.35377614 172.26409884 -0.36697611 172.989631 -0.38057607 C178.55800272 -0.28589253 180.83843779 1.48070484 184.61833191 5.27415466 C186.18664103 8.4107729 185.78343169 11.76411599 185.79533386 15.20872498 C185.80190506 16.02843277 185.80847626 16.84814056 185.81524658 17.69268799 C185.83499912 20.41255276 185.84664723 23.13236224 185.85661316 25.85227966 C185.86068869 26.78072441 185.86476421 27.70916916 185.86896324 28.6657486 C185.88983349 33.58095071 185.90413041 38.49612483 185.91349792 43.41136169 C185.92455732 48.48681228 185.95894905 53.56182383 185.99866962 58.63711929 C186.0248265 62.54052033 186.03318899 66.4438167 186.0367794 70.34729767 C186.04164869 72.21797904 186.05327241 74.08865562 186.0718174 75.9592514 C186.09618662 78.58052225 186.09524792 81.20065658 186.08830261 83.82200623 C186.1075177 84.97715477 186.1075177 84.97715477 186.12712097 86.15563965 C186.07719591 91.33636977 185.04327211 94.37875929 181.61833191 98.27415466 C177.35145862 100.90449327 172.6569786 100.58023411 167.78898621 100.59300232 C166.91043472 100.60304794 166.03188324 100.61309357 165.12670898 100.6234436 C162.231996 100.6542559 159.33737543 100.67130537 156.44255066 100.68821716 C154.43186652 100.70693037 152.42119021 100.7265039 150.41052246 100.74690247 C145.12520471 100.79821343 139.83986149 100.83784478 134.5544281 100.87504578 C129.15834765 100.91509184 123.76237301 100.96618146 118.36637878 101.01634216 C107.78377083 101.11308923 97.20110312 101.19749801 86.61833191 101.27415466 C87.40585594 101.7853334 87.40585594 101.7853334 88.20928955 102.30683899 C99.509744 109.64332171 110.79669878 116.99942773 122.05583191 124.39915466 C124.82520743 126.21840224 127.59478927 128.03733551 130.36442566 129.85618591 C131.05442657 130.30936691 131.74442749 130.76254791 132.45533752 131.22946167 C137.67940656 134.65975069 142.90615752 138.08593257 148.14048767 141.50054932 C151.1643318 143.4743628 154.18047338 145.45814612 157.18132019 147.46678162 C162.93156443 151.30265122 168.69670203 154.92575187 174.76286316 158.24290466 C190.12197271 166.89167032 190.12197271 166.89167032 192.64372253 172.59202576 C193.54492345 177.0845662 193.11471563 181.27217201 192.43669128 185.77049255 C191.54206265 192.37518431 191.24414911 198.91253126 191.07145691 205.57102966 C191.03241899 206.9285951 190.99333936 208.28615934 190.95422363 209.64372253 C190.61172938 222.13926758 190.44732614 234.63817535 190.273283 247.13696289 C190.22367293 250.67388589 190.17222961 254.21077754 190.12017822 257.74766541 C190.09419603 259.51902988 190.09419603 259.51902988 190.06768894 261.3261795 C190.03235114 263.73247722 189.99688078 266.13877299 189.96127987 268.54506683 C189.87134857 274.7015922 189.78887051 280.85808209 189.71965027 287.01487732 C189.65116385 293.06264945 189.56372114 299.10988131 189.46326637 305.15720367 C189.42879494 307.44249303 189.40132774 309.72789944 189.38107872 312.01335907 C189.35216906 315.17801193 189.29907178 318.34138399 189.24015808 321.50559998 C189.23603409 322.9094117 189.23603409 322.9094117 189.23182678 324.34158325 C189.07954628 330.60998037 189.07954628 330.60998037 186.82592773 333.85531616 C183.34220515 336.09433096 179.77628225 335.78284073 175.77458191 335.69993591 C174.42859673 335.6957515 174.42859673 335.6957515 173.05541992 335.69148254 C170.07586291 335.67666385 167.09756343 335.6323717 164.11833191 335.58665466 C162.03916036 335.56754919 159.95997645 335.5497488 157.88078308 335.53318787 C153.45758541 335.4930977 149.03487805 335.43822326 144.61198425 335.37278748 C138.64721747 335.28478771 132.68254195 335.22669074 126.71736145 335.17529297 C121.94671151 335.13082084 117.17634696 335.07118807 112.40592957 335.00666809 C110.09233983 334.97669984 107.77869331 334.95083003 105.4650116 334.92909241 C102.22013586 334.89595457 98.97613299 334.84357067 95.73161316 334.78587341 C94.76391495 334.77945831 93.79621674 334.77304321 92.79919434 334.76643372 C91.90846725 334.74666473 91.01774017 334.72689575 90.10002136 334.70652771 C89.32689102 334.69542465 88.55376068 334.68432159 87.75720215 334.67288208 C84.78371882 334.11856639 83.61089279 333.60293517 81.61833191 331.27415466 C81.24643846 328.12538422 81.13176335 325.33240685 81.19474792 322.18504333 C81.19779623 321.25158648 81.20084454 320.31812962 81.20398521 319.35638618 C81.21956726 316.23865211 81.26442796 313.12205688 81.30973816 310.00462341 C81.32775823 307.79395669 81.34429603 305.58327744 81.35943604 303.37258911 C81.41565378 296.3392864 81.51471486 289.30689375 81.61833191 282.27415466 C81.64930035 280.02368873 81.68012554 277.77322081 81.71080017 275.52275085 C81.91773442 260.73461695 82.19418947 245.94809029 82.48595428 231.16142273 C82.67727765 221.37378834 82.85672727 211.58592257 83.03850555 201.79810715 C83.10615854 198.16187117 83.17433066 194.52564517 83.24253845 190.88941956 C83.6322532 170.0184148 83.95767054 149.14682096 84.24333191 128.27415466 C84.26390967 126.77900694 84.28448867 125.28385924 84.30506897 123.78871155 C84.41264282 115.95056701 84.51743903 108.11238831 84.61833191 100.27415466 C83.50412872 100.28303711 82.38992554 100.29191956 81.24195862 100.30107117 C70.73655742 100.38219286 60.23121986 100.44213738 49.7255764 100.48140335 C44.32462372 100.50226915 38.92392411 100.53056874 33.52311707 100.57591248 C28.31004477 100.61940565 23.09721573 100.64329935 17.88397598 100.65366364 C15.89606014 100.66104873 13.90815746 100.67547015 11.92034531 100.69707489 C9.13367293 100.72615484 6.34800294 100.73010873 3.561203 100.72825623 C2.74120819 100.74263733 1.92121338 100.75701843 1.07637024 100.77183533 C-4.1818867 100.73406586 -7.31232244 99.90700461 -11.38166809 96.27415466 C-14.46561959 91.7010788 -14.81859554 87.53401408 -14.78572083 82.16087341 C-14.79258408 81.36984222 -14.79944733 80.57881104 -14.80651855 79.7638092 C-14.82474042 77.1629057 -14.82095622 74.56260797 -14.81526184 71.96165466 C-14.81982543 70.14614161 -14.82513154 68.33063029 -14.83114624 66.51512146 C-14.84006794 62.71565214 -14.83766444 58.91639313 -14.82771301 55.1169281 C-14.81621673 50.25450749 -14.83644956 45.39281239 -14.86563015 40.53048706 C-14.8839979 36.78318188 -14.88369868 33.03605045 -14.87799263 29.28871155 C-14.87783953 27.49620037 -14.88387474 25.70367734 -14.8962841 23.91120911 C-14.91120579 21.40282461 -14.90050983 18.89577925 -14.88337708 16.38743591 C-14.89304504 15.65167328 -14.90271301 14.91591064 -14.91267395 14.15785217 C-14.84013369 9.07156561 -13.59895754 6.18048435 -10.38166809 2.27415466 C-6.77453252 -0.13060238 -4.16651849 -0.01415488 0 0 Z " fill="#FE5B51" transform="translate(57.38166809082031,149.72584533691406)"/>
<path d="M0 0 C0.75701619 -0.00438225 1.51403239 -0.00876451 2.29398847 -0.01327956 C4.84420847 -0.02669114 7.39439391 -0.0328517 9.94464111 -0.03897095 C11.76769162 -0.04687006 13.59074056 -0.05513889 15.41378784 -0.06375122 C21.4126638 -0.08999358 27.41154681 -0.10528115 33.41046143 -0.11953735 C35.47382868 -0.12489614 37.53719589 -0.13027364 39.60056305 -0.13566971 C48.18241648 -0.15730175 56.76426801 -0.17603916 65.34614182 -0.1872921 C77.65376674 -0.20353531 89.96107614 -0.2367185 102.26858211 -0.29369295 C110.91747698 -0.33236851 119.56628738 -0.35192198 128.21526647 -0.35721266 C133.3832859 -0.36086941 138.55096898 -0.37292503 143.71889496 -0.4053154 C148.58137206 -0.43535397 153.44330856 -0.44172289 158.30585861 -0.42993164 C160.09007404 -0.42971055 161.87431424 -0.43804477 163.65844345 -0.45558548 C166.09602696 -0.47824513 168.53164485 -0.4699987 170.96923828 -0.45410156 C171.67411338 -0.46798365 172.37898847 -0.48186574 173.10522342 -0.49616849 C178.67763332 -0.4067227 180.95689312 1.35740808 184.73858643 5.15390015 C186.2978945 8.2725163 185.89475128 11.58867674 185.89971924 15.01254272 C185.90468414 15.82410324 185.90964905 16.63566376 185.9147644 17.47181702 C185.92940204 20.16403036 185.93619106 22.85618475 185.94171143 25.5484314 C185.94746203 27.41689557 185.95321978 29.28535972 185.95898438 31.15382385 C185.96949924 35.07548295 185.97533857 38.99712151 185.9788208 42.91879272 C185.98430331 47.94269648 186.00832407 52.9663289 186.03679276 57.99014759 C186.05542264 61.8514739 186.06062495 65.71273494 186.06215668 69.5741024 C186.06518348 71.42605763 186.07321296 73.2780117 186.08634186 75.12992287 C186.10340799 77.72251594 186.1015207 80.31444742 186.09503174 82.90707397 C186.10424652 83.67141754 186.1134613 84.43576111 186.12295532 85.2232666 C186.08759146 89.73663519 185.6442724 92.6493442 182.73858643 96.15390015 C177.78593852 100.47641475 173.87280754 100.71535353 167.61212158 100.60800171 C166.26481461 100.60887787 166.26481461 100.60887787 164.89028931 100.60977173 C161.93567612 100.60699573 158.98208483 100.57592655 156.02764893 100.54452515 C153.97356721 100.53706104 151.91947836 100.53136891 149.86538696 100.52737427 C144.46968791 100.51213138 139.07442232 100.47286087 133.67889404 100.42855835 C128.16890323 100.38757679 122.6588421 100.36935707 117.14874268 100.34921265 C106.34516724 100.30636555 95.54191294 100.23813028 84.73858643 100.15390015 C84.74080704 101.16436401 84.74302765 102.17482788 84.74531555 103.21591187 C84.84917813 152.08524032 84.94448409 200.94514857 83.87481594 249.80547905 C83.75664749 255.22925646 83.64917735 260.65321078 83.54327393 266.07723999 C83.37194199 274.80956402 83.18122803 283.54133892 82.97949219 292.27301025 C82.90136745 295.67177894 82.82942627 299.07059112 82.76281738 302.46960449 C82.68441968 306.44215681 82.59181621 310.41412884 82.48826599 314.38610268 C82.45234695 315.85341372 82.42140067 317.32085588 82.39570618 318.78838158 C82.35958058 320.80276059 82.30372932 322.81675705 82.24688721 324.83065796 C82.22103546 325.96110535 82.19518372 327.09155273 82.16854858 328.2562561 C81.69335454 331.45873137 81.02775183 332.88943105 78.73858643 335.15390015 C75.79840088 335.62387085 75.79840088 335.62387085 72.10186768 335.5796814 C71.07042381 335.57549698 71.07042381 335.57549698 70.0181427 335.57122803 C67.69513303 335.55628535 65.3736873 335.51179118 63.05108643 335.46640015 C61.40478048 335.44718506 59.75845729 335.42940192 58.11212158 335.41293335 C54.42597187 335.37170719 50.7403358 335.31600312 47.05450439 335.25253296 C41.28219808 335.15623017 35.50999223 335.10307269 29.73710632 335.05503845 C24.63079375 335.00987248 19.52472404 334.94991526 14.41860962 334.88641357 C11.88238004 334.85640998 9.34609805 334.83054988 6.80978394 334.80883789 C3.22058479 334.77556786 -0.3678428 334.72305579 -3.95672607 334.6656189 C-5.04054062 334.6592038 -6.12435516 334.6527887 -7.24101257 334.6461792 C-8.24048416 334.62641022 -9.23995575 334.60664124 -10.26971436 334.58627319 C-11.14105011 334.57517014 -12.01238586 334.56406708 -12.91012573 334.55262756 C-15.81614851 334.05982913 -17.19163062 333.24354401 -19.26141357 331.15390015 C-19.74916077 329.21844482 -19.74916077 329.21844482 -19.73138428 326.97958374 C-19.73426453 326.12593735 -19.73714478 325.27229095 -19.7401123 324.39277649 C-19.72264954 323.45543167 -19.70518677 322.51808685 -19.68719482 321.55233765 C-19.68431458 320.5575087 -19.68143433 319.56267975 -19.6784668 318.53770447 C-19.66333018 315.20099041 -19.61883658 311.86533665 -19.57391357 308.52890015 C-19.55611961 306.16505961 -19.53979341 303.80120763 -19.52484131 301.43734741 C-19.4723565 294.35101627 -19.38372483 287.26542286 -19.28817749 280.1795578 C-19.25232466 277.46599493 -19.21943597 274.75239973 -19.18664932 272.03879833 C-19.04445677 260.29271209 -18.89672684 248.54687072 -18.66864014 236.80209351 C-18.65556698 236.12440949 -18.64249382 235.44672548 -18.62902451 234.74850559 C-18.60950918 233.73710719 -18.60950918 233.73710719 -18.58959961 232.70527649 C-18.57667122 232.03477705 -18.56374283 231.36427761 -18.55042267 230.67346001 C-18.51167335 228.66734908 -18.47269536 226.66124257 -18.43371582 224.65513611 C-18.30226838 217.35801708 -18.24808215 210.06820945 -18.30158997 202.77009583 C-18.32993582 198.65452132 -18.32439715 194.53934587 -18.31509399 190.42370605 C-18.32088977 188.56245983 -18.34406951 186.70117143 -18.38619995 184.84039307 C-18.69289812 171.0992056 -18.69289812 171.0992056 -15.28485107 166.46786499 C-12.72097585 164.35564918 -10.1663751 162.75753359 -7.26141357 161.15390015 C-5.7289329 160.09921257 -4.20501131 159.03194983 -2.69110107 157.95077515 C-1.17492194 156.93209229 0.3433565 155.91652788 1.86358643 154.90390015 C7.94434141 150.80225881 13.90797814 146.6040023 19.73858643 142.15390015 C25.45139543 137.79703851 31.2859768 133.67667648 37.23858643 129.65390015 C43.89358689 125.15441429 50.40703886 120.52265278 56.78546143 115.63827515 C61.12793326 112.32097484 65.55073016 109.12760498 70.0010376 105.95736694 C70.64982628 105.49460106 71.29861496 105.03183517 71.9670639 104.55504608 C73.55725843 103.42089181 75.14787956 102.28733572 76.73858643 101.15390015 C75.21761856 101.1484317 75.21761856 101.1484317 73.66592407 101.14285278 C64.10210808 101.105884 54.53861352 101.04809072 44.97504234 100.96999741 C40.05848241 100.93051711 35.14210174 100.89833131 30.22540283 100.88290405 C25.47895595 100.86774114 20.73300184 100.83330204 15.98677444 100.78559113 C14.17757072 100.77077357 12.36829664 100.76285892 10.55903244 100.7620163 C8.0211837 100.75964598 5.48469608 100.73256247 2.94708252 100.69979858 C1.82929916 100.70734413 1.82929916 100.70734413 0.68893433 100.71504211 C-4.427366 100.61309247 -7.37581077 99.46404694 -11.26141357 96.15390015 C-14.64443782 92.05760952 -14.70109964 88.08295644 -14.68133545 82.97055054 C-14.68980499 82.16015823 -14.69827454 81.34976593 -14.70700073 80.51481628 C-14.73034517 77.84356877 -14.73139355 75.17289808 -14.73016357 72.5015564 C-14.73726648 70.63977326 -14.74496567 68.77799231 -14.75323486 66.91621399 C-14.76667363 63.01662102 -14.76825106 59.11723048 -14.76239014 55.21762085 C-14.75649329 50.22614293 -14.78708761 45.23563741 -14.82750702 40.24434757 C-14.8533852 36.40009855 -14.85626136 32.55608368 -14.85261536 28.71175957 C-14.85430636 26.87178541 -14.86394704 25.03180041 -14.88175964 23.1919117 C-14.90395347 20.61616463 -14.89424681 18.04238594 -14.87664795 15.46664429 C-14.89654282 14.33259155 -14.89654282 14.33259155 -14.9168396 13.17562866 C-14.82533942 7.39759362 -13.22752337 5.05316408 -9.26141357 1.15390015 C-6.28969796 -0.33195766 -3.25906241 0.00227266 0 0 Z " fill="#5271FF" transform="translate(276.26141357421875,149.84609985351563)"/>
</svg>
