<?xml version="1.0" encoding="UTF-8"?>
<svg version="1.1" xmlns="http://www.w3.org/2000/svg" width="1080" height="1920">
<path d="M0 0 C356.4 0 712.8 0 1080 0 C1080 633.6 1080 1267.2 1080 1920 C723.6 1920 367.2 1920 0 1920 C0 1286.4 0 652.8 0 0 Z " fill="#FEFEFE" transform="translate(0,0)"/>
<path d="M0 0 C2.27689588 1.32290533 4.27380978 2.6334224 6.375 4.1875 C13.02959289 8.86056788 19.94498508 12.88621343 27.0625 16.8125 C35.12794346 21.27087945 43.14197065 25.7883964 51.0625 30.5 C52.39994263 31.29543213 52.39994263 31.29543213 53.7644043 32.10693359 C55.58045131 33.18725711 57.39645039 34.26766123 59.21240234 35.34814453 C64.08557081 38.23585323 68.98028872 41.08650785 73.875 43.9375 C75.37389771 44.81063843 75.37389771 44.81063843 76.90307617 45.70141602 C78.92749849 46.88049665 80.95199405 48.05945155 82.9765625 49.23828125 C85.96485966 50.97952417 88.95147264 52.72361792 91.9375 54.46875 C103.57782495 61.27026904 115.23777404 68.03658099 126.92138672 74.76342773 C128.94359362 75.92797778 130.9573883 77.10727436 132.96191406 78.30200195 C136.00520271 80.07330622 136.00520271 80.07330622 139.40527344 81.45385742 C142.82383099 83.02485237 145.32638898 84.34431549 148 87 C149.46142609 92.21456518 149.14503101 97.11514033 148.75 102.4375 C148.6897335 103.85068457 148.63499307 105.26411624 148.5859375 106.67773438 C148.45437893 110.12366597 148.2478527 113.56024943 148 117 C146.9584375 117.29132813 145.916875 117.58265625 144.84375 117.8828125 C108.79822485 128.11424188 77.7927686 146.7619603 51 173 C50.1244043 173.85513184 49.24880859 174.71026367 48.34667969 175.59130859 C45.81782039 178.06598604 43.29896869 180.55056516 40.78570557 183.04107666 C39.77996393 184.0374648 38.77297019 185.03259105 37.7645874 186.02630615 C31.0371465 192.66860742 24.89026717 199.60386679 19 207 C17.22636889 209.12027002 15.42500406 211.21438801 13.625 213.3125 C9.80761736 217.78149941 6.15127381 222.34614161 2.5625 227 C-5.04338984 236.80533133 -13.29577127 246.21639987 -23 254 C-23.50789062 254.40959961 -24.01578125 254.81919922 -24.5390625 255.24121094 C-31.83548272 261.10916533 -39.23557039 266.75811549 -47 272 C-44.30248712 274.15739914 -41.79096065 275.65960414 -38.5859375 276.9375 C-37.74160156 277.27523438 -36.89726562 277.61296875 -36.02734375 277.9609375 C-35.15207031 278.30382812 -34.27679688 278.64671875 -33.375 279 C-32.52292969 279.34289062 -31.67085938 279.68578125 -30.79296875 280.0390625 C-28.20786602 281.06371744 -25.61029705 282.04147762 -23 283 C-21.80165527 283.45439453 -21.80165527 283.45439453 -20.57910156 283.91796875 C-7.97065642 288.26184067 2.89660786 285.64535726 15 281.1875 C16.50367755 280.65120931 18.00801765 280.11677349 19.51293945 279.58398438 C22.84984691 278.39798088 26.18159182 277.19869517 29.51025391 275.98974609 C35.36748903 273.86303478 41.23613771 271.76883275 47.10546875 269.67578125 C55.98558311 266.50536173 64.86169342 263.32397331 73.734375 260.1328125 C74.88111191 259.72038803 76.02784882 259.30796356 77.20933533 258.88304138 C82.73699444 256.89454765 88.26424695 254.90492927 93.79098988 252.91389084 C100.29048496 250.57247448 106.79111758 248.23426879 113.29374409 245.90156174 C116.41142143 244.78294357 119.52814664 243.66178105 122.64364624 242.53710938 C126.1032293 241.28832337 129.56500948 240.04582143 133.02734375 238.8046875 C134.05301453 238.43270233 135.0786853 238.06071716 136.13543701 237.67745972 C140.74558996 236.03167346 145.10504162 234.55461392 150 234 C150.22334904 238.73194539 150.38615853 243.46079744 150.49438477 248.19677734 C150.53950884 249.80539397 150.60083129 251.41364414 150.67895508 253.02099609 C151.30669677 266.2733207 151.30669677 266.2733207 148.32128906 270.21826172 C145.95479247 271.82645367 143.64111045 272.90541491 141 274 C139.33633208 274.93817473 137.68277757 275.89447812 136.0390625 276.8671875 C134.23581198 277.87237387 132.43104722 278.87484724 130.625 279.875 C121.94411101 284.72988586 113.35415551 289.71684494 104.8125 294.8125 C95.59591987 300.30707584 86.32996954 305.7003008 77 311 C66.61319217 316.90129602 56.30923365 322.92831682 46.04785156 329.04614258 C40.31293109 332.46036787 34.56310111 335.84373926 28.7734375 339.1640625 C28.18110321 339.50398727 27.58876892 339.84391205 26.97848511 340.19413757 C24.15077547 341.81548919 21.32021309 343.43158168 18.48583984 345.04125977 C13.09686331 348.1222085 8.00802242 351.33672434 3 355 C-1.55804436 357.08910367 -5.21740823 357.40029351 -10 356 C-13.7468989 354.19333679 -17.2637708 352.0404443 -20.8125 349.875 C-22.96432167 348.59027098 -25.11668413 347.3064474 -27.26953125 346.0234375 C-28.93363037 345.02521973 -28.93363037 345.02521973 -30.63134766 344.00683594 C-36.05264796 340.77715856 -41.52708669 337.64113376 -47 334.5 C-56.3344261 329.12540217 -65.64640599 323.71367965 -74.94555664 318.27832031 C-82.42743774 313.90860107 -89.9291808 309.57410879 -97.4375 305.25 C-105.16920525 300.79627097 -112.88957544 296.32596063 -120.57177734 291.78735352 C-124.7360699 289.32802529 -128.90958086 286.88523116 -133.08984375 284.453125 C-134.15960449 283.83058838 -135.22936523 283.20805176 -136.33154297 282.56665039 C-138.43022019 281.34604297 -140.52947178 280.12642236 -142.62939453 278.90795898 C-144.55120136 277.7898604 -146.46383228 276.65580091 -148.36572266 275.50415039 C-150.91635791 273.96765942 -150.91635791 273.96765942 -153.47412109 273.00952148 C-155.97371748 271.91163246 -157.32745584 271.17318141 -159 269 C-159.98761237 263.86684456 -159.75337816 258.87159324 -159.5 253.6875 C-159.45984499 252.26507351 -159.42334764 250.84253875 -159.390625 249.41992188 C-159.30272435 245.94435605 -159.16484613 242.47286418 -159 239 C-157.96713867 238.68836914 -156.93427734 238.37673828 -155.87011719 238.05566406 C-124.06813273 228.39953248 -95.88651044 214.11220472 -71.40625 191.23046875 C-69.40981041 189.37987296 -67.38005809 187.60199727 -65.31640625 185.828125 C-60.48240785 181.61203574 -55.96063375 177.10729281 -51.4375 172.5625 C-50.62603516 171.75490234 -49.81457031 170.94730469 -48.97851562 170.11523438 C-44.11116913 165.24003098 -39.46123238 160.24846777 -35 155 C-34.52377197 154.44546143 -34.04754395 153.89092285 -33.55688477 153.31958008 C-32.21965124 151.75951415 -30.88943982 150.19382733 -29.5625 148.625 C-29.09150879 148.06828613 -28.62051758 147.51157227 -28.13525391 146.93798828 C-24.67428526 142.83213326 -21.29755705 138.66550969 -17.95703125 134.4609375 C-1.32532892 113.5468208 -1.32532892 113.5468208 7.9296875 105.76171875 C10.20704647 103.82381517 12.37543149 101.78909853 14.5625 99.75 C20.96059367 93.9526663 27.98058815 89.00718045 35 84 C30.15126505 80.76751003 24.59031074 79.11710404 19.13330078 77.14941406 C17.72258567 76.63730736 16.31461794 76.11756147 14.90966797 75.58984375 C-4.44255276 68.32191844 -17.10369254 72.76231395 -36.09375 79.6484375 C-38.56614047 80.53817379 -41.03880414 81.42715121 -43.51171875 82.31542969 C-44.1359095 82.53986818 -44.76010025 82.76430668 -45.40320587 82.99554634 C-51.80832091 85.29612383 -58.23069849 87.54633411 -64.65625 89.7890625 C-65.78082611 90.18198486 -66.90540222 90.57490723 -68.0640564 90.97973633 C-70.36481692 91.78355326 -72.6656291 92.58722235 -74.9664917 93.39074707 C-96.36969893 100.86687815 -117.72505245 108.45502224 -138.98632812 116.32666016 C-139.85194366 116.64516937 -140.7175592 116.96367859 -141.60940552 117.2918396 C-143.21010671 117.88084698 -144.80939904 118.47370371 -146.4069519 119.07119751 C-149.40820568 120.17286665 -151.77557112 121 -155 121 C-155.22329729 116.12563009 -155.38613882 111.25426039 -155.49438477 106.37597656 C-155.53951672 104.71887346 -155.60084462 103.06212631 -155.67895508 101.40625 C-156.30547077 87.77851009 -156.30547077 87.77851009 -153.3762207 83.7878418 C-150.99778256 82.1715551 -148.65230863 81.10764633 -146 80 C-144.10383539 78.90736891 -142.22021748 77.79276269 -140.34765625 76.66015625 C-138.25434715 75.45789761 -136.15920549 74.2588256 -134.0625 73.0625 C-132.33476359 72.07112539 -130.60702982 71.07974615 -128.87945557 70.08808899 C-127.09776381 69.065892 -125.31531765 68.04502131 -123.53271484 67.02441406 C-117.97347707 63.84035353 -112.42424296 60.63893802 -106.875 57.4375 C-105.79871338 56.81689697 -104.72242676 56.19629395 -103.61352539 55.55688477 C-95.40541553 50.82041587 -87.21714171 46.05060317 -79.03637695 41.26708984 C-72.8173205 37.6336557 -66.58178961 34.03027266 -60.3359375 30.44311523 C-47.37832472 22.99886619 -34.53462242 15.38004534 -21.7421875 7.65576172 C-18.96449027 5.97855885 -16.18629703 4.30221178 -13.40625 2.62890625 C-12.20452148 1.90489624 -12.20452148 1.90489624 -10.97851562 1.16625977 C-6.84570146 -1.26987712 -4.77547124 -1.04308947 0 0 Z " fill="#35ACCC" transform="translate(525,658)"/>
<path d="M0 0 C13.53 0 27.06 0 41 0 C42.50691406 3.90585938 44.01382813 7.81171875 45.56640625 11.8359375 C46.78929216 15.00520437 48.01222594 18.17445277 49.23519135 21.34368896 C50.51442011 24.65876618 51.79357005 27.97387376 53.07250977 31.2890625 C58.6963439 45.86664293 64.32406375 60.44260416 70 75 C71.95518089 72.06722867 73.04280446 69.50809296 74.27490234 66.21850586 C74.72231781 65.0297435 75.16973328 63.84098114 75.63070679 62.61619568 C76.11583003 61.31576232 76.60090572 60.01531122 77.0859375 58.71484375 C77.58879913 57.37531633 78.09202963 56.03592733 78.59561157 54.69667053 C79.92240125 51.16554497 81.24479948 47.63279159 82.56610107 44.09960938 C84.67236564 38.46976587 86.78548621 32.8424917 88.89818192 27.21505928 C89.63050637 25.26264895 90.36111323 23.30960328 91.09140015 21.35643005 C98.55114055 1.44885945 98.55114055 1.44885945 100 0 C113.2 0 126.4 0 140 0 C140 39.6 140 79.2 140 120 C129.11 120 118.22 120 107 120 C106.67 99.21 106.34 78.42 106 57 C104.49566406 61.46402344 102.99132812 65.92804688 101.44140625 70.52734375 C100.48925834 73.34841829 99.53693705 76.16943189 98.58398438 78.99023438 C97.0701466 83.47134862 95.55696923 87.95267856 94.04760742 92.43530273 C92.83122152 96.04769053 91.61197258 99.65910003 90.39069939 103.26983833 C89.92436729 104.6502465 89.45908266 106.03100897 88.99484444 107.41212273 C88.34639137 109.34069534 87.69392678 111.26791775 87.04125977 113.19506836 C86.48499657 114.84387245 86.48499657 114.84387245 85.91749573 116.52598572 C85 119 85 119 84 120 C81.92737924 120.08767112 79.85179706 120.10695873 77.77734375 120.09765625 C75.88725586 120.09282227 75.88725586 120.09282227 73.95898438 120.08789062 C72.61848891 120.07953403 71.27799412 120.07106907 69.9375 120.0625 C68.59310058 120.0574866 67.2486994 120.05292342 65.90429688 120.04882812 C62.60282059 120.03699488 59.30143197 120.02050971 56 120 C53.98994418 114.26135848 51.98201058 108.52197987 49.97583008 102.78198242 C49.29668975 100.83973371 48.61702369 98.89766874 47.93676758 96.95581055 C46.94465196 94.12339756 45.95459477 91.29027127 44.96484375 88.45703125 C44.67286606 87.62484573 44.38088837 86.79266022 44.08006287 85.93525696 C40.61095782 75.99130493 37.33155899 65.99467698 34 56 C33.67 77.12 33.34 98.24 33 120 C22.11 120 11.22 120 0 120 C0 80.4 0 40.8 0 0 Z " fill="#35ACCC" transform="translate(668,1053)"/>
<path d="M0 0 C13.2 0 26.4 0 40 0 C41.90845703 5.28837891 41.90845703 5.28837891 43.85546875 10.68359375 C45.39654482 14.95020831 46.93850794 19.21650184 48.4808197 23.48266983 C48.95037277 24.78155493 49.41986577 26.08046175 49.88929749 27.37939072 C55.55637795 43.05988086 61.25222785 58.72900608 67.03515625 74.3671875 C67.27761267 75.02317743 67.52006908 75.67916737 67.76987267 76.35503578 C69.891118 82.09413035 72.01296123 87.83299601 74.14633179 93.56759644 C75.44944744 97.07132722 76.74839864 100.57657911 78.046875 104.08203125 C78.43444473 105.11903168 78.82201447 106.1560321 79.22132874 107.22445679 C79.57464767 108.18010529 79.92796661 109.13575378 80.29199219 110.12036133 C80.59949402 110.94691727 80.90699585 111.77347321 81.22381592 112.62507629 C82 115 82 115 83 120 C71.12 120 59.24 120 47 120 C45.02 113.73 43.04 107.46 41 101 C26.81 100.67 12.62 100.34 -2 100 C-2.66 102.97 -3.32 105.94 -4 109 C-5.32 112.63 -6.64 116.26 -8 120 C-19.55 120 -31.1 120 -43 120 C-39.62457005 108.74856684 -39.62457005 108.74856684 -37.92553711 104.04272461 C-37.54279129 102.97870422 -37.16004547 101.91468384 -36.76570129 100.81842041 C-36.3570433 99.69111511 -35.94838531 98.56380981 -35.52734375 97.40234375 C-35.0914946 96.19374695 -34.65564545 94.98515015 -34.20658875 93.7399292 C-33.03021974 90.47869816 -31.8503015 87.21876233 -30.66950226 83.95913315 C-29.93539365 81.93168273 -29.20234469 79.90385241 -28.46966553 77.87588501 C-19.07792881 51.88115216 -9.56874001 25.9301041 0 0 Z " fill="#36ACCC" transform="translate(574,1053)"/>
<path d="M0 0 C12.87 0 25.74 0 39 0 C43.49954841 10.12398391 43.49954841 10.12398391 45.08032227 14.52075195 C45.43978943 15.51524353 45.79925659 16.50973511 46.1696167 17.53436279 C46.54805725 18.59165588 46.9264978 19.64894897 47.31640625 20.73828125 C47.72586487 21.87332092 48.13532349 23.0083606 48.55718994 24.17779541 C49.66553391 27.25139238 50.7710865 30.32597582 51.8754921 33.40098953 C53.74016854 38.5892101 55.61286437 43.77454741 57.48415184 48.96038628 C57.96482465 50.2926409 58.44536514 51.62494328 58.92577553 52.95729256 C62.46286682 62.76686606 66.02473333 72.56707908 69.609375 82.359375 C70.05180038 83.56800705 70.49422577 84.7766391 70.95005798 86.02189636 C72.65778584 90.68497968 74.36652695 95.34768726 76.07791138 100.00942993 C77.24719644 103.19463376 78.41471142 106.3804818 79.58203125 109.56640625 C79.9309845 110.51461243 80.27993774 111.4628186 80.63946533 112.4397583 C80.95284851 113.29567566 81.26623169 114.15159302 81.58911133 115.03344727 C81.86330399 115.78006119 82.13749664 116.52667511 82.41999817 117.2959137 C83 119 83 119 83 120 C71.12 120 59.24 120 47 120 C46.01 117.07125 45.02 114.1425 44 111.125 C43.68675781 110.20348145 43.37351562 109.28196289 43.05078125 108.33251953 C42.80714844 107.60661621 42.56351562 106.88071289 42.3125 106.1328125 C42.06113281 105.38918457 41.80976563 104.64555664 41.55078125 103.87939453 C41 102 41 102 41 100 C26.81 100 12.62 100 -2 100 C-2.99 103.63 -3.98 107.26 -5 111 C-5.99 113.97 -6.98 116.94 -8 120 C-19.55 120 -31.1 120 -43 120 C-41.87514037 113.25084219 -41.87514037 113.25084219 -40.56738281 109.74121094 C-40.27409592 108.94572845 -39.98080902 108.15024597 -39.67863464 107.33065796 C-39.19575737 106.04549789 -39.19575737 106.04549789 -38.703125 104.734375 C-38.36175003 103.81194 -38.02037506 102.889505 -37.6686554 101.93911743 C-36.92461402 99.92998431 -36.17820573 97.92172651 -35.42971802 95.91424561 C-33.39422014 90.45462295 -31.37564535 84.98874387 -29.35546875 79.5234375 C-28.92729355 78.36635284 -28.49911835 77.20926819 -28.05796814 76.01712036 C-24.74749695 67.05858603 -21.48257639 58.0842353 -18.23828125 49.1015625 C-18.00039509 48.44309326 -17.76250893 47.78462402 -17.51741409 47.10620117 C-15.17238696 40.61426198 -12.83087244 34.121063 -10.49283314 27.62660408 C-9.41465376 24.63335414 -8.33399198 21.64099998 -7.25390625 18.6484375 C-6.86713211 17.571315 -6.48035797 16.4941925 -6.0818634 15.38442993 C-5.71912827 14.38019989 -5.35639313 13.37596985 -4.98266602 12.34130859 C-4.67055679 11.47428314 -4.35844757 10.60725769 -4.03688049 9.71395874 C-2.78544456 6.43841686 -1.38126253 3.22294591 0 0 Z " fill="#36ACCC" transform="translate(318,1053)"/>
<path d="M0 0 C11.88 0 23.76 0 36 0 C41.87267983 17.39604817 47.43490494 34.87092377 52.83514404 52.41796875 C54.25354752 57.0263069 55.67390625 61.63403991 57.09718323 66.24087524 C57.84905687 68.67537009 58.59923636 71.11038897 59.34751892 73.54598999 C59.68199539 74.62957794 60.01647186 75.71316589 60.36108398 76.82958984 C60.6545018 77.78312347 60.94791962 78.7366571 61.25022888 79.71908569 C61.93741977 81.99612319 61.93741977 81.99612319 63 84 C63.30876068 83.00663635 63.61752136 82.01327271 63.93563843 80.98980713 C66.8452317 71.63046596 69.75842859 62.2722532 72.67516136 52.91513443 C74.1745801 48.10446754 75.67272445 43.29341149 77.16796875 38.48144531 C78.61088345 33.83805013 80.05712941 29.1957047 81.50569534 24.55406952 C82.05788681 22.78262088 82.60887495 21.01079667 83.15864182 19.23859406 C83.92859233 16.7573429 84.70280226 14.27745897 85.47802734 11.79785156 C85.70460526 11.06417358 85.93118317 10.33049561 86.16462708 9.57458496 C87.22914602 6.18460487 88.4026459 3.19470821 90 0 C101.55 0 113.1 0 125 0 C124.27037736 3.6481132 123.4712805 6.81529044 122.28857422 10.30126953 C121.9361264 11.34482101 121.58367859 12.3883725 121.22055054 13.46354675 C120.83581573 14.59190445 120.45108093 15.72026215 120.0546875 16.8828125 C119.45136093 18.66338799 119.45136093 18.66338799 118.83584595 20.47993469 C117.74488453 23.69649434 116.65099004 26.91202445 115.55545044 30.1270256 C114.87495252 32.1251394 114.19568676 34.12366771 113.5168457 36.12234497 C106.99299764 55.32907099 100.39267491 74.50831982 93.67138672 93.64697266 C93.38488251 94.46300964 93.0983783 95.27904663 92.80319214 96.11981201 C92.25959256 97.66784716 91.71560562 99.21574636 91.1711731 100.76348877 C89.28918545 106.12893086 87.48715552 111.51753447 85.74414062 116.92993164 C85 119 85 119 84 120 C82.64905018 120.09268999 81.29332909 120.11747326 79.93920898 120.11352539 C79.07839218 120.11344986 78.21757538 120.11337433 77.33067322 120.11329651 C76.39526199 120.10813522 75.45985077 120.10297394 74.49609375 120.09765625 C73.54307877 120.0962413 72.59006378 120.09482635 71.60816956 120.09336853 C68.55124835 120.08775152 65.49439923 120.07519616 62.4375 120.0625 C60.37044376 120.05748719 58.30338638 120.05292391 56.23632812 120.04882812 C51.15752412 120.03777656 46.0787743 120.02050055 41 120 C40.77021957 119.33127365 40.54043915 118.6625473 40.30369568 117.97355652 C25.96858138 76.24495217 25.96858138 76.24495217 11.5 34.5625 C11.1997995 33.70191986 10.899599 32.84133972 10.59030151 31.9546814 C9.73805954 29.51248463 8.88493546 27.07059878 8.03125 24.62890625 C7.77130753 23.8849913 7.51136505 23.14107635 7.24354553 22.37461853 C6.00870206 18.84876251 4.76135815 15.32816486 3.48828125 11.81591797 C3.25234253 11.16348618 3.01640381 10.51105438 2.77331543 9.83885193 C2.14030057 8.09321426 1.50293912 6.34915447 0.86523438 4.60522461 C0 2 0 2 0 0 Z " fill="#36ACCC" transform="translate(403,1053)"/>
<path d="M0 0 C25.41 0 50.82 0 77 0 C77 8.58 77 17.16 77 26 C62.81 26 48.62 26 34 26 C34 32.6 34 39.2 34 46 C46.54 46 59.08 46 72 46 C72 54.58 72 63.16 72 72 C59.46 72 46.92 72 34 72 C34 78.93 34 85.86 34 93 C48.19 93 62.38 93 77 93 C77 101.91 77 110.82 77 120 C51.59 120 26.18 120 0 120 C0 80.4 0 40.8 0 0 Z " fill="#36ACCC" transform="translate(827,1053)"/>
<path d="M0 0 C29.04 0 58.08 0 88 0 C88 29.65482523 88 29.65482523 78.76953125 38.94140625 C74.78142166 43.1415289 71.43568474 47.67554468 68.0625 52.375 C66.89617766 53.96735306 65.72819947 55.55849457 64.55859375 57.1484375 C63.97577637 57.9434668 63.39295898 58.73849609 62.79248047 59.55761719 C59.19445971 64.46017776 55.58028713 69.35086411 51.96899414 74.24365234 C47.61922074 80.1435865 43.31163605 86.07150043 39 92 C63.255 92.495 63.255 92.495 88 93 C88 101.91 88 110.82 88 120 C58.96 120 29.92 120 0 120 C0 90.34512147 0 90.34512147 8.515625 81.7734375 C12.24368896 77.83085366 15.32242397 73.55857654 18.4375 69.125 C19.52438955 67.61079192 20.61293935 66.09777421 21.703125 64.5859375 C22.24517578 63.83151367 22.78722656 63.07708984 23.34570312 62.29980469 C25.01350132 59.98123045 26.68562701 57.6658447 28.359375 55.3515625 C28.9169751 54.58054199 29.4745752 53.80952148 30.04907227 53.01513672 C31.08586834 51.58175959 32.12279794 50.14847902 33.15991211 48.71533203 C38.1355822 41.8304984 43.06230349 34.91277512 48 28 C32.16 27.67 16.32 27.34 0 27 C0 18.09 0 9.18 0 0 Z " fill="#36ACCC" transform="translate(177,1053)"/>
<path d="M0 0 C2.31 0.33 4.62 0.66 7 1 C6.75 3.875 6.75 3.875 6 7 C3.9375 8.375 3.9375 8.375 2 9 C2.495 9.474375 2.99 9.94875 3.5 10.4375 C5.72263419 14.23450007 5.56152948 17.70006876 5 22 C3.25676468 26.22046445 1.20536739 28.24776359 -3 30 C-6.65930228 30.53160527 -10.30828104 30.81250464 -14 31 C-14 31.99 -14 32.98 -14 34 C-12.90300781 34.10957031 -11.80601562 34.21914062 -10.67578125 34.33203125 C-9.22128484 34.49155666 -7.76686137 34.65174813 -6.3125 34.8125 C-5.59126953 34.88275391 -4.87003906 34.95300781 -4.12695312 35.02539062 C0.24952083 35.52498811 3.4091855 36.24859668 7 39 C9.48220049 42.72330073 9.63714105 45.68704523 9 50 C7.13978876 54.10796648 5.61217923 55.65348346 1.6875 57.875 C-5.40067649 60.11758691 -14.44096228 60.47733641 -21.3125 57.625 C-25.17946703 55.28683389 -27.51379188 52.94483248 -28.625 48.5 C-27.65233551 44.60934203 -25.19346971 43.32857166 -22 41 C-22.33 40.443125 -22.66 39.88625 -23 39.3125 C-24.16803602 36.61141671 -24.37367024 34.91462786 -24 32 C-22.6875 30.1875 -22.6875 30.1875 -21 29 C-20.01 29 -19.02 29 -18 29 C-18 28.34 -18 27.68 -18 27 C-18.61875 26.7525 -19.2375 26.505 -19.875 26.25 C-22.51939985 24.69447068 -23.07669938 23.92378529 -24 21 C-24.42161717 15.68762372 -24.53159711 12.26227237 -21 8 C-17.02720088 5.06634941 -14.20705261 4.63837964 -9.3125 4.75 C-7.60513672 4.77320313 -7.60513672 4.77320313 -5.86328125 4.796875 C-3 5 -3 5 -1 6 C-0.67 4.02 -0.34 2.04 0 0 Z " fill="#3DAFCE" transform="translate(658,1239)"/>
<path d="M0 0 C5.78133701 5.48485819 8.44377364 10.16155627 8.8125 18.1875 C8.66722847 24.61818642 6.58940798 29.16059202 2.0625 33.6875 C-3.49075307 37.12522809 -9.11052181 38.35137784 -15.5625 37.3125 C-20.85931264 35.27161341 -24.94488293 31.77460611 -27.7109375 26.81640625 C-29.77787228 20.7388595 -29.7932978 13.83681089 -27.67578125 7.7734375 C-21.97373898 -2.34247803 -10.31520473 -4.88614961 0 0 Z " fill="#3BAECD" transform="translate(617.5625,1245.6875)"/>
<path d="M0 0 C4.19677192 2.51806315 6.90761912 5.44023823 9.125 9.875 C10.26131785 25.11283615 10.26131785 25.11283615 6.47265625 31.359375 C4.05989257 34.07285995 1.40921348 35.3545308 -1.875 36.875 C-2.865 37.37 -2.865 37.37 -3.875 37.875 C-9.82793853 38.43174965 -14.84848091 38.41641118 -19.875 34.875 C-25.83045919 28.8214509 -27.16658954 25.22782665 -27.1940918 16.62573242 C-27.09081423 11.08006043 -26.37228303 8.12845234 -22.875 3.875 C-16.6225288 -1.91997331 -8.0416182 -3.01117862 0 0 Z " fill="#3AAECD" transform="translate(550.875,1245.125)"/>
<path d="M0 0 C5.38923649 1.82849095 8.46108206 4.92216411 11 10 C11 13.63 11 17.26 11 21 C2.75 21 -5.5 21 -14 21 C-11.81940167 27.84825895 -11.81940167 27.84825895 -8 30 C-4.09008592 30.33275864 -1.30581879 30.20387919 2 28 C2.33 27.34 2.66 26.68 3 26 C5.96175123 26.61277612 7.38058783 27.25372522 10 29 C9.45393377 32.82246363 7.97420582 34.58848176 5 37 C-0.46442938 39.54159506 -6.38983679 40.08046103 -12.1796875 38.34765625 C-17.3172769 36.08905563 -20.40438929 32.95423088 -23 28 C-23.8125 25.625 -23.8125 25.625 -24 23 C-24.061875 22.33097656 -24.12375 21.66195313 -24.1875 20.97265625 C-24.50725379 15.12715734 -23.42290098 10.78997423 -20 6 C-13.82611772 -0.34712898 -8.55524747 -0.61588823 0 0 Z " fill="#3CAECD" transform="translate(715,1244)"/>
<path d="M0 0 C5.38923649 1.82849095 8.46108206 4.92216411 11 10 C11 13.63 11 17.26 11 21 C2.75 21 -5.5 21 -14 21 C-11.81940167 27.84825895 -11.81940167 27.84825895 -8 30 C-4.09008592 30.33275864 -1.30581879 30.20387919 2 28 C2.33 27.34 2.66 26.68 3 26 C5.96175123 26.61277612 7.38058783 27.25372522 10 29 C9.45393377 32.82246363 7.97420582 34.58848176 5 37 C-0.46442938 39.54159506 -6.38983679 40.08046103 -12.1796875 38.34765625 C-17.3172769 36.08905563 -20.40438929 32.95423088 -23 28 C-23.8125 25.625 -23.8125 25.625 -24 23 C-24.061875 22.33097656 -24.12375 21.66195313 -24.1875 20.97265625 C-24.50725379 15.12715734 -23.42290098 10.78997423 -20 6 C-13.82611772 -0.34712898 -8.55524747 -0.61588823 0 0 Z " fill="#3CAECD" transform="translate(380,1244)"/>
<path d="M0 0 C2.97 0 5.94 0 9 0 C9 6.27 9 12.54 9 19 C12.465 16.525 12.465 16.525 16 14 C19.77839624 13.13897137 23.19855813 13.25968829 27 14 C30.437805 16.52573428 32.44095144 19.06521771 34 23 C34.22705078 26.11621094 34.22705078 26.11621094 34.1953125 29.734375 C34.18886719 31.02988281 34.18242187 32.32539062 34.17578125 33.66015625 C34.15907193 35.02344019 34.14214206 36.38672144 34.125 37.75 C34.1149634 39.12889985 34.10583873 40.50780665 34.09765625 41.88671875 C34.07408093 45.25798882 34.0411727 48.62890636 34 52 C30.7 52 27.4 52 24 52 C23.67 42.43 23.34 32.86 23 23 C14.72694871 22.14988102 14.72694871 22.14988102 11.484375 24.73046875 C9.17897907 29.80840663 9.32092606 34.79638662 9.25 40.3125 C9.22035156 41.43462891 9.19070313 42.55675781 9.16015625 43.71289062 C9.08962583 46.47533207 9.03684507 49.23693774 9 52 C6.03 52 3.06 52 0 52 C0 34.84 0 17.68 0 0 Z " fill="#39ADCD" transform="translate(438,1230)"/>
<path d="M0 0 C3.77427718 1.6060754 5.9142661 3.48895963 8 7 C8.34057617 10.29980469 8.34057617 10.29980469 8.29296875 14.171875 C8.28872391 14.8542926 8.28447906 15.53671021 8.28010559 16.23980713 C8.26336972 18.41028004 8.22572959 20.57980979 8.1875 22.75 C8.17244646 24.22524697 8.15875922 25.70050855 8.14648438 27.17578125 C8.11348377 30.78415844 8.06173767 34.3919871 8 38 C5.03 38 2.06 38 -1 38 C-1.33 28.43 -1.66 18.86 -2 9 C-4.97 9 -7.94 9 -11 9 C-14.81778211 12.81778211 -15.1162819 15.14957483 -15.31640625 20.32421875 C-15.35830078 21.35224609 -15.40019531 22.38027344 -15.44335938 23.43945312 C-15.48267578 24.51130859 -15.52199219 25.58316406 -15.5625 26.6875 C-15.60568359 27.77095703 -15.64886719 28.85441406 -15.69335938 29.97070312 C-15.79946838 32.64700791 -15.90152361 35.32340526 -16 38 C-18.97 38 -21.94 38 -25 38 C-25 25.79 -25 13.58 -25 1 C-22.36 1 -19.72 1 -17 1 C-17 2.65 -17 4.3 -17 6 C-16.34 6 -15.68 6 -15 6 C-14.731875 5.38125 -14.46375 4.7625 -14.1875 4.125 C-11.10043033 -1.39922993 -5.52983637 -0.57510298 0 0 Z " fill="#36ACCC" transform="translate(507,1244)"/>
<path d="M0 0 C12.87 0 25.74 0 39 0 C39 2.97 39 5.94 39 9 C34.05 9 29.1 9 24 9 C24 22.53 24 36.06 24 50 C20.7 50 17.4 50 14 50 C14 36.47 14 22.94 14 9 C9.38 9 4.76 9 0 9 C0 6.03 0 3.06 0 0 Z " fill="#3EAFCE" transform="translate(318,1232)"/>
<path d="M0 0 C1.9140625 0.8203125 1.9140625 0.8203125 4.6640625 2.3203125 C4.6640625 6.3203125 4.6640625 6.3203125 3.4140625 8.1328125 C2.8365625 8.5246875 2.2590625 8.9165625 1.6640625 9.3203125 C0.32054154 9.03076057 -1.01198012 8.6891292 -2.3359375 8.3203125 C-3.91618755 8.10839155 -5.49992211 7.92107879 -7.0859375 7.7578125 C-7.88515625 7.67402344 -8.684375 7.59023437 -9.5078125 7.50390625 C-10.11109375 7.44332031 -10.714375 7.38273437 -11.3359375 7.3203125 C-11.6659375 8.6403125 -11.9959375 9.9603125 -12.3359375 11.3203125 C-9.47749589 13.22594024 -8.26342388 13.64692102 -5.0234375 14.1953125 C-0.60191736 15.10414046 2.14620339 16.50602521 5.6640625 19.3203125 C7.40986474 22.81191697 7.23389381 26.51076608 6.6640625 30.3203125 C4.98895874 33.62186556 2.61385971 35.72329711 -0.5234375 37.6953125 C-7.52108801 39.25034595 -13.35214436 38.88571388 -19.7421875 35.5859375 C-21.66544804 34.05864236 -22.3934449 32.56344489 -23.3359375 30.3203125 C-22.0159375 28.6703125 -20.6959375 27.0203125 -19.3359375 25.3203125 C-16.84232179 26.52412698 -14.65450667 27.77459972 -12.3359375 29.3203125 C-10.27884154 29.56086718 -10.27884154 29.56086718 -8.1484375 29.4453125 C-6.8903125 29.4040625 -5.6321875 29.3628125 -4.3359375 29.3203125 C-4.0059375 27.6703125 -3.6759375 26.0203125 -3.3359375 24.3203125 C-4.21636719 24.08957031 -5.09679687 23.85882812 -6.00390625 23.62109375 C-17.62377723 20.3582443 -17.62377723 20.3582443 -21.3359375 15.3203125 C-22.74594414 12.50029923 -22.58142201 10.45023995 -22.3359375 7.3203125 C-18.31050988 -1.78986581 -8.76721226 -2.55099487 0 0 Z " fill="#3CAECD" transform="translate(754.3359375,1244.6796875)"/>
<path d="M0 0 C3.56141563 1.3121005 6.81763607 2.79064128 9 6 C8.9375 8 8.9375 8 8 10 C4.67857143 13 4.67857143 13 2 13 C1.443125 12.34 0.88625 11.68 0.3125 11 C-1.94480603 8.66279517 -1.94480603 8.66279517 -5.5625 8.625 C-9.11785744 8.74548643 -9.11785744 8.74548643 -12 11 C-13.61541298 15.41862961 -13.64785365 20.38311193 -13 25 C-11.16348401 28.33821811 -11.16348401 28.33821811 -8 30 C-3.35950301 30.16573204 -1.57317671 29.50000521 1.9375 26.4375 C2.618125 25.633125 3.29875 24.82875 4 24 C5.98 24.99 7.96 25.98 10 27 C9.91651691 29.83842501 9.4276272 31.54049314 7.48046875 33.6328125 C2.57344456 37.90967148 -1.0589988 39.36629155 -7.5859375 39.28125 C-12.84736165 38.66826855 -16.72637747 36.30713892 -20.375 32.5625 C-24.3930081 26.2264103 -24.78267067 20.36688767 -24 13 C-22.27200908 7.57057399 -18.44414531 4.28480306 -14 1 C-9.841159 -1.0794205 -4.5405514 -0.33831559 0 0 Z " fill="#3CAECD" transform="translate(421,1244)"/>
<path d="M0 0 C3.3 0 6.6 0 10 0 C10.33 14.85 10.66 29.7 11 45 C12.32 45.33 13.64 45.66 15 46 C15.04241723 48.33294775 15.04092937 50.66702567 15 53 C14 54 14 54 10.75 54.25 C6.76583778 53.98438919 5.04724608 53.52486104 2 51 C-0.79146331 46.14978704 -0.25237131 40.86838591 -0.1953125 35.44921875 C-0.1924826 34.43527542 -0.18965271 33.42133209 -0.18673706 32.37666321 C-0.17556625 29.14682073 -0.15046711 25.91725829 -0.125 22.6875 C-0.1149662 20.49414464 -0.10584105 18.30078492 -0.09765625 16.10742188 C-0.07563701 10.7381738 -0.04112825 5.36913434 0 0 Z " fill="#40B0CE" transform="translate(569,1229)"/>
<path d="M0 0 C3.47380199 2.70043034 4.40426622 6.4145091 5.69921875 10.44140625 C5.9391304 11.16488754 6.17904205 11.88836884 6.42622375 12.6337738 C6.93037762 14.15965343 7.43021997 15.68696348 7.92602539 17.21557617 C8.68678827 19.56030639 9.46034745 21.90050156 10.23632812 24.24023438 C10.7247087 25.72371151 11.21236406 27.20742764 11.69921875 28.69140625 C11.93041916 29.39350723 12.16161957 30.09560822 12.39982605 30.81898499 C14 35.76554428 14 35.76554428 14 38 C5.42 38 -3.16 38 -12 38 C-8.625 25.625 -8.625 25.625 -6.73828125 20.01953125 C-6.14370117 18.24545898 -6.14370117 18.24545898 -5.53710938 16.43554688 C-5.13298828 15.23994141 -4.72886719 14.04433594 -4.3125 12.8125 C-3.68891602 10.9552832 -3.68891602 10.9552832 -3.05273438 9.06054688 C-2.03791686 6.03942347 -1.02029029 3.0192786 0 0 Z " fill="#F5FBFC" transform="translate(593,1090)"/>
<path d="M0 0 C2.76414094 1.38207047 2.95058457 3.23695073 3.90371704 6.04206848 C4.24915054 7.0982563 4.24915054 7.0982563 4.6015625 8.17578125 C4.8428891 8.89734909 5.0842157 9.61891693 5.33285522 10.36235046 C5.84240203 11.89197169 6.34820959 13.42284278 6.85058594 14.95483398 C7.6194631 17.29564318 8.40252359 19.63134413 9.1875 21.96679688 C9.6805472 23.45284004 10.17276202 24.93915969 10.6640625 26.42578125 C11.0155687 27.47286003 11.0155687 27.47286003 11.37417603 28.54109192 C12.47013506 31.91015787 13 34.41156788 13 38 C4.75 38 -3.5 38 -12 38 C-10.72641501 32.26886755 -9.52384353 27.22842444 -7.6171875 21.77734375 C-7.28849167 20.83091759 -7.28849167 20.83091759 -6.95315552 19.8653717 C-6.26512987 17.88773948 -5.57022038 15.91261288 -4.875 13.9375 C-4.4018818 12.5815413 -3.92922194 11.22542259 -3.45703125 9.86914062 C-2.30996322 6.57756639 -1.15671656 3.28819785 0 0 Z " fill="#F5FBFC" transform="translate(337,1090)"/>
<path d="M0 0 C3.3 0 6.6 0 10 0 C10 12.54 10 25.08 10 38 C6.7 38 3.4 38 0 38 C0 25.46 0 12.92 0 0 Z " fill="#41B1CF" transform="translate(673,1244)"/>
<path d="M0 0 C3.61357428 0.11189574 4.17984611 0.49378122 7.1875 2.9375 C9.95314421 6.88975507 9.96004671 10.85641277 9.1875 15.5 C7.63478802 19.56662662 6.82470598 21.07519602 3.1875 23.5 C0.3125 23.9375 0.3125 23.9375 -2.8125 23.5 C-5.91414769 20.94975635 -7.53816416 19.32300753 -8.8125 15.5 C-9.16147334 10.09091325 -9.21566685 6.95029511 -5.8125 2.5 C-3.8125 0.5 -3.8125 0.5 0 0 Z " fill="#F6FBFC" transform="translate(541.8125,1251.5)"/>
<path d="M0 0 C2.88258588 0.65701649 4.18570607 2.0989665 5.90234375 4.43359375 C7.8698648 8.36863585 7.3665697 13.14414595 6.90234375 17.43359375 C5.10115897 20.43556839 3.99901643 21.88525741 0.90234375 23.43359375 C-1.97265625 23.74609375 -1.97265625 23.74609375 -5.09765625 23.43359375 C-7.40041181 21.56649465 -8.77589496 20.07711634 -10.09765625 17.43359375 C-10.58179336 12.06046546 -10.88363109 7.13653924 -8.59765625 2.18359375 C-5.55660995 0.05486134 -3.65333376 -0.22450654 0 0 Z " fill="#F9FCFD" transform="translate(609.09765625,1251.56640625)"/>
<path d="M0 0 C2.62527189 -0.05382106 5.24944713 -0.09358313 7.875 -0.125 C8.62136719 -0.14175781 9.36773438 -0.15851563 10.13671875 -0.17578125 C12.09194461 -0.1933959 14.04742021 -0.10320189 16 0 C16.66 0.66 17.32 1.32 18 2 C17.875 4 17.875 4 17 6 C13.95183312 7.94534696 11.51714612 8.27159666 7.9375 8.25 C7.08027344 8.25515625 6.22304688 8.2603125 5.33984375 8.265625 C3 8 3 8 0 6 C-0.1875 2.875 -0.1875 2.875 0 0 Z " fill="#F8FCFD" transform="translate(640,1283)"/>
<path d="M0 0 C3.5 0.25 3.5 0.25 5.5 2.25 C5.75 5.75 5.75 5.75 5.5 9.25 C3.5 11.25 3.5 11.25 0 11.5 C-3.5 11.25 -3.5 11.25 -5.5 9.25 C-5.75 5.75 -5.75 5.75 -5.5 2.25 C-3.5 0.25 -3.5 0.25 0 0 Z " fill="#FBFDFE" transform="translate(648.5,1250.75)"/>
<path d="M0 0 C3.0625 0.3125 3.0625 0.3125 4.9375 1.5 C6.46909584 3.96757108 6.49072025 5.45769831 6.0625 8.3125 C4.9375 10.125 4.9375 10.125 3.0625 11.3125 C0.0625 11.75 0.0625 11.75 -2.9375 11.3125 C-4.875 9.625 -4.875 9.625 -5.9375 7.3125 C-5.61764525 2.8345335 -4.76027546 0.50641228 0 0 Z " fill="#41B1CF" transform="translate(677.9375,1228.6875)"/>
<path d="M0 0 C2.4375 1.75 2.4375 1.75 4 4 C4 5.32 4 6.64 4 8 C-0.95 8 -5.9 8 -11 8 C-10 3 -10 3 -8.875 1.1875 C-5.84814901 -0.72950563 -3.4846244 -0.42793633 0 0 Z " fill="#F7FBFD" transform="translate(713,1251)"/>
<path d="M0 0 C2.4375 1.75 2.4375 1.75 4 4 C4 5.32 4 6.64 4 8 C-0.95 8 -5.9 8 -11 8 C-10 3 -10 3 -8.875 1.1875 C-5.84814901 -0.72950563 -3.4846244 -0.42793633 0 0 Z " fill="#F7FBFD" transform="translate(378,1251)"/>
</svg>
